<svg width="464px" height="304px" viewBox="0 0 464 304" version="1.1" xmlns="http://www.w3.org/2000/svg" xmlns:xlink="http://www.w3.org/1999/xlink"> <title>Group</title> <g id="Page-1" stroke="none" stroke-width="1" fill="none" fill-rule="evenodd"> <g id="Group" fill-rule="nonzero"> <rect id="Rectangle" fill="#A3D4F7" x="0" y="0" width="464" height="304" rx="32"></rect> <rect id="Rectangle" fill="#E9EEF2" x="48" y="48" width="64" height="64" rx="16"></rect> <path d="M168,232 L48,232 C43.581722,232 40,228.418278 40,224 C40,219.581722 43.581722,216 48,216 L168,216 C172.418278,216 176,219.581722 176,224 C176,228.418278 172.418278,232 168,232 Z" id="Path" fill="#1261A0"></path> <path d="M208,264.006 L48,264 C43.581722,264 40,260.418278 40,256 C40,251.581722 43.581722,248 48,248 L208,248.006 C212.418278,248.006 216,251.587722 216,256.006 C216,260.424278 212.418278,264.006 208,264.006 Z" id="Path" fill="#1261A0"></path> <path d="M48,72 L64,72 C68.418278,72 72,75.581722 72,80 C72,84.418278 68.418278,88 64,88 L48,88 L48,72 Z" id="Path" fill="#DADCDE"></path> <path d="M112,88 L96,88 C91.581722,88 88,84.418278 88,80 C88,75.581722 91.581722,72 96,72 L112,72 L112,88 Z" id="Path" fill="#DADCDE"></path> <g transform="translate(40.000000, 40.000000)" fill="#1261A0" id="Path"> <path d="M367.994,80.0000021 C365.221861,79.9981737 362.648251,78.5613538 361.192006,76.202518 C359.735761,73.8436821 359.604467,70.8990793 360.845,68.42 C360.911,68.289 368,53.84 368,40 C368,26.16 360.911,11.711 360.839,11.566 C358.907555,7.6191939 360.520902,2.85332506 364.452605,0.891318446 C368.384308,-1.07068816 373.16255,0.505636634 375.155,4.422 C375.517,5.145 384,22.314 384,40 C384,57.686 375.517,74.855 375.155,75.578 C373.798884,78.2899586 371.026122,80.0021706 367.994,80.0000021 L367.994,80.0000021 Z"></path> <path d="M304,64.0000077 C300.764211,64.0000077 297.846987,62.0509791 296.608689,59.0615069 C295.37039,56.0720347 296.054893,52.6309891 298.343,50.343 C300.611,48.043 304,43.134 304,40 C304,36.866 300.611,31.962 298.321,29.635 C295.202801,26.50465 295.21265,21.4391999 298.343,18.3210003 C301.47335,15.2028007 306.5388,15.2126503 309.657,18.343 C310.716,19.4 320,29 320,40 C320,51 310.716,60.6 309.657,61.657 C308.158274,63.1597034 306.122331,64.0029446 304,64.0000077 L304,64.0000077 Z"></path> <path d="M56,128 L8,128 C3.581722,128 0,124.418278 0,120 C0,115.581722 3.581722,112 8,112 L56,112 C60.418278,112 64,115.581722 64,120 C64,124.418278 60.418278,128 56,128 Z"></path> <path d="M152,128 L104,128 C99.581722,128 96,124.418278 96,120 C96,115.581722 99.581722,112 104,112 L152,112 C156.418278,112 160,115.581722 160,120 C160,124.418278 156.418278,128 152,128 Z"></path> <path d="M248,128 L200,128 C195.581722,128 192,124.418278 192,120 C192,115.581722 195.581722,112 200,112 L248,112 C252.418278,112 256,115.581722 256,120 C256,124.418278 252.418278,128 248,128 Z"></path> <path d="M344,128 L296,128 C291.581722,128 288,124.418278 288,120 C288,115.581722 291.581722,112 296,112 L344,112 C348.418278,112 352,115.581722 352,120 C352,124.418278 348.418278,128 344,128 Z"></path> <path d="M341.657,10.343 C338.532725,7.21872551 333.467275,7.21872567 330.343,10.3430004 C327.218726,13.467275 327.218726,18.5327251 330.343,21.657 C330.399,21.714 336,27.857 336,40 C336,52.143 330.488,58.184 330.254,58.435 L330.343,58.343 C327.218726,61.4672749 327.218726,66.532725 330.343,69.6569996 C333.467275,72.7812743 338.532725,72.7812745 341.657,69.657 C342.716,68.6 352,58.771 352,40 C352,21.229 342.716,11.4 341.657,10.343 L341.657,10.343 Z"></path> </g> </g> </g></svg>
