<svg viewBox="0 0 70 50" version="1.1" xmlns="http://www.w3.org/2000/svg" xmlns:xlink="http://www.w3.org/1999/xlink"> <g id="Page-1" stroke="none" stroke-width="1" fill="none" fill-rule="evenodd"> <g id="Order" transform="translate(-148.000000, -2767.000000)" fill-rule="nonzero"> <g id="Group-31" transform="translate(148.000000, 2767.000000)"> <g id="Group"> <rect id="XMLID_115_" fill="#56B46F" x="0" y="10" width="70" height="40"></rect> <polygon id="XMLID_114_" fill="#74BE86" points="65 10 2 10 2 5"></polygon> <path d="M52,30.5 C52,39.6130769 44.6130769,47 35.5,47 C26.3869231,47 19,39.6130769 19,30.5 C19,21.3869231 26.3869231,14 35.5,14 C44.6130769,14 52,21.3869231 52,30.5" id="XMLID_79_" fill="#4D8157"></path> <path d="M26,44 C21.4566919,41.0714545 18.4269914,35.9041818 18.4269914,30 C18.4269914,24.0958182 21.4566919,18.9285455 26,16 L13.4251274,16 C13.4437679,16.21 13.4561949,16.4212727 13.4561949,16.6363636 C13.4561949,20.5029091 10.3954269,23.6363636 6.62134957,23.6363636 C6.41133342,23.6363636 6.20504536,23.6236364 6,23.6045455 L6,36.3954545 C6.20504536,36.3763636 6.41133342,36.3636364 6.62134957,36.3636364 C10.3954269,36.3636364 13.4561949,39.4970909 13.4561949,43.3636364 C13.4561949,43.5787273 13.4437679,43.79 13.4251274,44 L26,44 Z" id="XMLID_112_" fill="#EAEAD7"></path> <path d="M63.3786504,23.6363636 C59.6033304,23.6363636 56.5438051,20.5029091 56.5438051,16.6363636 C56.5438051,16.4212727 56.5562321,16.21 56.5748726,16 L44,16 C48.5433081,18.9285455 51.5730086,24.0958182 51.5730086,30 C51.5730086,35.9041818 48.5433081,41.0714545 44,44 L56.5748726,44 C56.5562321,43.79 56.5438051,43.5787273 56.5438051,43.3636364 C56.5438051,39.4970909 59.6033304,36.3636364 63.3786504,36.3636364 C63.5886666,36.3636364 63.7949546,36.3763636 64,36.3954545 L64,23.6045455 C63.7949546,23.6236364 63.5886666,23.6363636 63.3786504,23.6363636" id="XMLID_111_" fill="#EAEAD7"></path> <path d="M7,20 C5.3452,20 4,18.6548 4,17 C4,15.3452 5.3452,14 7,14 C8.6548,14 10,15.3452 10,17 C10,18.6548 8.6548,20 7,20" id="XMLID_110_" fill="#EAEAD7"></path> <path d="M63,20 C61.3452,20 60,18.6548 60,17 C60,15.3452 61.3452,14 63,14 C64.6548,14 66,15.3452 66,17 C66,18.6548 64.6548,20 63,20" id="XMLID_109_" fill="#EAEAD7"></path> <path d="M7,46 C5.3452,46 4,44.6548 4,43 C4,41.3452 5.3452,40 7,40 C8.6548,40 10,41.3452 10,43 C10,44.6548 8.6548,46 7,46" id="XMLID_108_" fill="#EAEAD7"></path> <path d="M63,46 C61.3452,46 60,44.6548 60,43 C60,41.3452 61.3452,40 63,40 C64.6548,40 66,41.3452 66,43 C66,44.6548 64.6548,46 63,46" id="XMLID_107_" fill="#EAEAD7"></path> <polygon id="XMLID_106_" fill="#83C38E" points="6 0 6 5.3 65.22 10 69 10"></polygon> <path d="M42.1726336,33.746836 C43.0680305,33.4765908 43.7263364,32.6707687 43.7263364,31.7126265 L43.7263364,30.6439295 C43.7263364,29.8245951 43.2420654,29.117044 42.5434036,28.7583549 C42.0591326,24.7366146 39.3300638,23.1090014 34.9426189,23.1090014 C34.7357949,23.1090014 34.531493,23.1163717 34.3322357,23.1323407 C32.8403279,23.2478092 31.3320255,22.9751072 30.0923422,22.1606863 C29.5765431,21.8216514 29.142717,21.4629623 28.8375254,21.084619 C28.6975408,20.9126448 28.4188328,21.0219712 28.4453163,21.2406242 C28.4894556,21.614054 28.5537729,22.0513599 28.6521404,22.5279742 C29.0140825,24.3029939 28.7971695,24.0438042 28.0922021,25.7193245 C27.7025152,26.6455286 27.4515519,27.6736888 27.3342675,28.7620401 C26.6406502,29.1231859 26.1589014,29.8270519 26.1589014,30.6439295 L26.1589014,31.7126265 C26.1589014,32.6707687 26.8184684,33.4765908 27.7126042,33.746836 C28.3065929,35.9112545 29.5260982,37.6420523 31.6485672,38.5326332 L31.6485672,39.7573354 C31.6485672,40.0705742 31.4657045,40.35556 31.1781686,40.4943678 L26.9395362,42.5285773 C26.5725496,42.7226625 26.2698802,42.9892226 26,43.2828071 C28.6130456,44.9976359 31.7620682,46 35.1507041,46 C38.4132278,46 41.4462271,45.0602837 44,43.4596949 C43.6859805,43.0887219 43.2912492,42.7791683 42.8322007,42.5556018 L38.6969803,40.4968246 C38.4144889,40.3567884 38.2366706,40.0742593 38.2366706,39.7659341 L38.2366706,38.5326332 C40.3591396,37.6420523 41.578645,35.9112545 42.1726336,33.746836" id="XMLID_105_" fill="#EAEAD7"></path> </g> </g> </g> </g></svg>
